<svg width="128" height="128" viewBox="0 0 128 128" fill="none" xmlns="http://www.w3.org/2000/svg">
<g clip-path="url(#clip0_1_2)">
<path d="M94.4141 153.086L91.5859 155.914L-36.4141 27.9141L-33.5859 25.0859L94.4141 153.086ZM1.99902 -0.829102C2.09626 -0.731863 2.19394 -0.635158 2.29102 -0.538086L2.58203 -0.24707C2.67893 -0.150176 2.77534 -0.0527843 2.87207 0.0439453L4.31836 1.49023C4.41429 1.58617 4.51067 1.68157 4.60645 1.77734L4.89355 2.06445C4.98914 2.16004 5.08426 2.25613 5.17969 2.35156C5.2752 2.44707 5.37145 2.54235 5.4668 2.6377C5.56209 2.73299 5.65682 2.82869 5.75195 2.92383L8.02148 5.19336C8.11542 5.2873 8.20992 5.38082 8.30371 5.47461L8.58496 5.75586C8.67859 5.84949 8.77175 5.94363 8.86523 6.03711L9.14551 6.31738C9.23882 6.41069 9.33262 6.50352 9.42578 6.59668L9.70508 6.87598C9.79809 6.96899 9.89054 7.06241 9.9834 7.15527L11.0947 8.2666C11.187 8.35891 11.2799 8.4508 11.3721 8.54297C11.4641 8.635 11.5556 8.72745 11.6475 8.81934L12.1992 9.37109C12.2909 9.46277 12.3831 9.55397 12.4746 9.64551L12.749 9.91992C12.8404 10.0113 12.9312 10.1031 13.0225 10.1943C13.1137 10.2856 13.2057 10.3766 13.2969 10.4678L13.5703 10.7412C13.6613 10.8322 13.7519 10.9238 13.8428 11.0146L14.1152 11.2871C14.206 11.3778 14.2971 11.468 14.3877 11.5586L14.9307 12.1016C15.021 12.1919 15.111 12.2829 15.2012 12.373C15.2912 12.4631 15.3817 12.5526 15.4717 12.6426C15.5617 12.7326 15.6513 12.8232 15.7412 12.9131L16.8174 13.9893C16.9068 14.0787 16.9967 14.1676 17.0859 14.2568L17.3535 14.5244C17.4426 14.6135 17.5312 14.703 17.6201 14.792C17.7091 14.881 17.7988 14.9697 17.8877 15.0586C17.9765 15.1474 18.0647 15.2366 18.1533 15.3252L18.6855 15.8574C18.774 15.9459 18.8629 16.0338 18.9512 16.1221C19.0395 16.2104 19.1276 16.2995 19.2158 16.3877L20.2715 17.4434C20.3592 17.5311 20.4475 17.6184 20.5352 17.7061L20.7979 17.9688C20.8853 18.0562 20.9722 18.1441 21.0596 18.2314C21.147 18.3188 21.235 18.4059 21.3223 18.4932C21.4094 18.5803 21.496 18.6679 21.583 18.7549L25.209 22.3809C25.2945 22.4664 25.3804 22.5513 25.4658 22.6367C25.5512 22.7221 25.6364 22.8082 25.7217 22.8936L26.2324 23.4043C26.3175 23.4894 26.4033 23.5742 26.4883 23.6592L26.7432 23.9141C26.828 23.9989 26.9123 24.0842 26.9971 24.1689L29.5244 26.6963C29.6082 26.78 29.6927 26.8636 29.7764 26.9473C29.8599 27.0308 29.9429 27.1148 30.0264 27.1982L30.7773 27.9492C30.8606 28.0324 30.9442 28.1151 31.0273 28.1982C31.1105 28.2814 31.1933 28.3652 31.2764 28.4482L31.5254 28.6973C31.6083 28.7802 31.6916 28.8625 31.7744 28.9453C31.8573 29.0282 31.9397 29.1116 32.0225 29.1943L33.7539 30.9258C33.836 31.0079 33.9189 31.0898 34.001 31.1719L34.2471 31.418C34.329 31.4999 34.4104 31.5822 34.4922 31.6641C34.574 31.7459 34.6565 31.8274 34.7383 31.9092C34.8201 31.991 34.9017 32.0736 34.9834 32.1553C35.065 32.2369 35.147 32.3179 35.2285 32.3994C35.3101 32.481 35.3912 32.5631 35.4727 32.6445L38.1494 35.3213C38.23 35.4019 38.3111 35.482 38.3916 35.5625C38.4722 35.6431 38.5523 35.7242 38.6328 35.8047L39.3564 36.5283C39.4367 36.6086 39.5175 36.6884 39.5977 36.7686C39.6778 36.8487 39.7578 36.9297 39.8379 37.0098L40.3184 37.4902C40.3983 37.5701 40.4788 37.6497 40.5586 37.7295C40.6385 37.8094 40.718 37.8899 40.7979 37.9697L41.5156 38.6875C41.5952 38.7671 41.6753 38.8462 41.7549 38.9258C41.8345 39.0054 41.9137 39.0855 41.9932 39.165L42.708 39.8799C42.7873 39.9591 42.8671 40.038 42.9463 40.1172C43.0255 40.1964 43.1044 40.2763 43.1836 40.3555L43.8955 41.0674C43.9745 41.1464 44.0539 41.2248 44.1328 41.3037C44.2118 41.3827 44.2902 41.4621 44.3691 41.541L45.3145 42.4863C45.3931 42.565 45.4722 42.6431 45.5508 42.7217C45.6294 42.8003 45.7076 42.8795 45.7861 42.958L48.1348 45.3066C48.2127 45.3846 48.2913 45.4622 48.3691 45.54C48.4471 45.618 48.5247 45.6965 48.6025 45.7744L49.0693 46.2412C49.1472 46.319 49.2259 46.3968 49.3037 46.4746C49.3814 46.5523 49.4585 46.6304 49.5361 46.708L49.7695 46.9414C49.8472 47.0191 49.9253 47.0962 50.0029 47.1738C50.0805 47.2514 50.1578 47.3297 50.2354 47.4072C50.313 47.4848 50.3912 47.5621 50.4688 47.6396C50.5463 47.7172 50.6237 47.7955 50.7012 47.873L51.166 48.3379C51.2433 48.4152 51.3211 48.492 51.3984 48.5693C51.4757 48.6466 51.5526 48.7245 51.6299 48.8018L51.8623 49.0342C51.9396 49.1115 52.0175 49.1884 52.0947 49.2656C52.172 49.3429 52.249 49.4208 52.3262 49.498L53.4834 50.6553C53.5604 50.7323 53.6379 50.8088 53.7148 50.8857C53.7918 50.9627 53.8684 51.0402 53.9453 51.1172L54.4072 51.5791C54.4842 51.656 54.5618 51.7327 54.6387 51.8096L54.8691 52.04C54.946 52.1169 55.0228 52.1946 55.0996 52.2715L55.5605 52.7324C55.6372 52.8091 55.7144 52.8853 55.791 52.9619C55.8677 53.0386 55.9439 53.1158 56.0205 53.1924L56.251 53.4229C56.3276 53.4995 56.4048 53.5757 56.4814 53.6523C56.5581 53.729 56.6343 53.8062 56.7109 53.8828C56.7876 53.9594 56.8648 54.0357 56.9414 54.1123C57.018 54.1889 57.0943 54.2662 57.1709 54.3428L57.4004 54.5723C57.477 54.6488 57.5543 54.7252 57.6309 54.8018C57.7074 54.8783 57.7838 54.9557 57.8604 55.0322L58.7783 55.9502C58.8547 56.0265 58.9315 56.1024 59.0078 56.1787L59.2373 56.4082C59.3136 56.4845 59.3895 56.5614 59.4658 56.6377L59.6953 56.8672C59.7716 56.9435 59.8485 57.0194 59.9248 57.0957C60.0011 57.172 60.077 57.2489 60.1533 57.3252C60.2297 57.4015 60.3065 57.4774 60.3828 57.5537C60.4591 57.63 60.535 57.7069 60.6113 57.7832C60.6876 57.8595 60.7645 57.9354 60.8408 58.0117C60.9171 58.088 60.993 58.1649 61.0693 58.2412C61.1456 58.3175 61.2225 58.3934 61.2988 58.4697C61.3751 58.546 61.4511 58.623 61.5273 58.6992L61.9844 59.1562C62.0606 59.2325 62.1376 59.3085 62.2139 59.3848C62.2901 59.461 62.3661 59.538 62.4424 59.6143L63.1279 60.2998C63.2041 60.376 63.2812 60.4521 63.3574 60.5283L63.8145 60.9854C63.8907 61.0616 63.9668 61.1386 64.043 61.2148L66.7852 63.957C66.8614 64.0332 66.9384 64.1093 67.0146 64.1855L67.4717 64.6426C67.5479 64.7188 67.624 64.7959 67.7002 64.8721L68.3857 65.5576C68.462 65.6339 68.539 65.7099 68.6152 65.7861C68.6915 65.8624 68.7675 65.9394 68.8438 66.0156L69.3008 66.4727C69.377 66.5489 69.454 66.6249 69.5303 66.7012C69.6066 66.7775 69.6825 66.8544 69.7588 66.9307C69.8351 67.007 69.912 67.0829 69.9883 67.1592C70.0646 67.2355 70.1405 67.3124 70.2168 67.3887C70.2931 67.465 70.37 67.5409 70.4463 67.6172C70.5226 67.6935 70.5985 67.7703 70.6748 67.8467C70.7511 67.923 70.828 67.9989 70.9043 68.0752C70.9806 68.1515 71.0565 68.2284 71.1328 68.3047L71.3623 68.5342C71.4386 68.6105 71.5155 68.6864 71.5918 68.7627L71.8213 68.9922C71.8976 69.0685 71.9735 69.1453 72.0498 69.2217L72.9678 70.1396C73.0443 70.2162 73.1217 70.2926 73.1982 70.3691C73.2748 70.4457 73.3512 70.523 73.4277 70.5996L73.6572 70.8291C73.7338 70.9057 73.8111 70.982 73.8877 71.0586C73.9643 71.1352 74.0406 71.2124 74.1172 71.2891C74.1938 71.3657 74.271 71.4419 74.3477 71.5186C74.4243 71.5952 74.5005 71.6724 74.5771 71.749L74.8076 71.9795C74.8842 72.0561 74.9614 72.1323 75.0381 72.209C75.1147 72.2856 75.1909 72.3628 75.2676 72.4395L75.7285 72.9004C75.8054 72.9772 75.8831 73.054 75.96 73.1309L76.1904 73.3613C76.2673 73.4382 76.344 73.5158 76.4209 73.5928L76.8828 74.0547C76.9598 74.1316 77.0373 74.2082 77.1143 74.2852C77.1912 74.3621 77.2677 74.4396 77.3447 74.5166L78.502 75.6738C78.5792 75.751 78.6571 75.828 78.7344 75.9053C78.8116 75.9825 78.8885 76.0604 78.9658 76.1377L79.1982 76.3701C79.2755 76.4474 79.3534 76.5243 79.4307 76.6016C79.508 76.6789 79.5848 76.7567 79.6621 76.834L80.127 77.2988C80.2045 77.3763 80.2828 77.4537 80.3604 77.5312C80.4379 77.6088 80.5152 77.687 80.5928 77.7646C80.6703 77.8422 80.7486 77.9195 80.8262 77.9971C80.9038 78.0747 80.9809 78.1528 81.0586 78.2305L81.292 78.4639C81.3696 78.5415 81.4477 78.6186 81.5254 78.6963C81.6032 78.7741 81.681 78.8528 81.7588 78.9307L82.2256 79.3975C82.3035 79.4753 82.382 79.5529 82.46 79.6309C82.5378 79.7087 82.6154 79.7873 82.6934 79.8652L85.042 82.2139C85.1205 82.2924 85.1997 82.3706 85.2783 82.4492C85.3569 82.5278 85.435 82.6069 85.5137 82.6855L86.459 83.6309C86.5379 83.7098 86.6173 83.7882 86.6963 83.8672C86.7752 83.9461 86.8536 84.0255 86.9326 84.1045L87.6445 84.8164C87.7237 84.8956 87.8036 84.9745 87.8828 85.0537C87.962 85.1329 88.0409 85.2127 88.1201 85.292L88.835 86.0068C88.9145 86.0863 88.9946 86.1655 89.0742 86.2451C89.1538 86.3247 89.2329 86.4048 89.3125 86.4844L90.0303 87.2021C90.1101 87.282 90.1906 87.3615 90.2705 87.4414C90.3503 87.5212 90.4299 87.6017 90.5098 87.6816L90.9902 88.1621C91.0703 88.2422 91.1513 88.3222 91.2314 88.4023C91.3116 88.4825 91.3914 88.5633 91.4717 88.6436L92.1953 89.3672C92.2758 89.4477 92.3569 89.5278 92.4375 89.6084C92.518 89.6889 92.5981 89.77 92.6787 89.8506L95.3555 92.5273C95.4369 92.6088 95.519 92.6899 95.6006 92.7715C95.6821 92.853 95.7631 92.935 95.8447 93.0166C95.9264 93.0983 96.009 93.1799 96.0908 93.2617C96.1726 93.3435 96.2541 93.426 96.3359 93.5078C96.4178 93.5896 96.5001 93.671 96.582 93.7529L96.8281 93.999C96.9102 94.0811 96.9921 94.164 97.0742 94.2461L98.8057 95.9775C98.8884 96.0603 98.9718 96.1427 99.0547 96.2256C99.1375 96.3084 99.2198 96.3917 99.3027 96.4746L99.5518 96.7236C99.6348 96.8067 99.7186 96.8895 99.8018 96.9727C99.8849 97.0558 99.9676 97.1394 100.051 97.2227L100.802 97.9736C100.885 98.0571 100.969 98.1401 101.053 98.2236C101.136 98.3073 101.22 98.3918 101.304 98.4756L103.831 101.003C103.916 101.088 104.001 101.172 104.086 101.257L104.341 101.512C104.426 101.597 104.511 101.682 104.596 101.768L105.106 102.278C105.192 102.364 105.278 102.449 105.363 102.534C105.449 102.62 105.534 102.706 105.619 102.791L109.245 106.417C109.332 106.504 109.42 106.591 109.507 106.678C109.594 106.765 109.681 106.853 109.769 106.94C109.856 107.028 109.944 107.115 110.031 107.202L110.294 107.465C110.382 107.552 110.469 107.641 110.557 107.729L111.612 108.784C111.701 108.872 111.79 108.96 111.878 109.049C111.966 109.137 112.054 109.226 112.143 109.314L112.675 109.847C112.763 109.935 112.853 110.024 112.941 110.112C113.03 110.201 113.119 110.291 113.208 110.38C113.297 110.469 113.386 110.557 113.476 110.646L113.743 110.914C113.832 111.003 113.921 111.093 114.011 111.183L115.087 112.259C115.177 112.349 115.267 112.438 115.357 112.528C115.447 112.618 115.537 112.709 115.627 112.799C115.717 112.889 115.808 112.979 115.898 113.069L116.441 113.612C116.532 113.703 116.622 113.794 116.713 113.885L116.985 114.157C117.076 114.248 117.168 114.339 117.259 114.43L117.532 114.703C117.623 114.794 117.714 114.886 117.806 114.978C117.897 115.069 117.989 115.16 118.08 115.251L118.354 115.525C118.446 115.617 118.537 115.709 118.629 115.801L119.181 116.353C119.273 116.444 119.365 116.536 119.457 116.628C119.549 116.72 119.641 116.813 119.733 116.905L120.845 118.017C120.938 118.109 121.031 118.202 121.124 118.295L121.403 118.574C121.496 118.667 121.589 118.761 121.683 118.854L121.963 119.135C122.056 119.228 122.151 119.321 122.244 119.415L122.525 119.696C122.619 119.79 122.713 119.885 122.807 119.979L125.076 122.248C125.171 122.343 125.267 122.438 125.362 122.533C125.458 122.629 125.553 122.725 125.648 122.82C125.744 122.916 125.84 123.011 125.936 123.106L126.223 123.394C126.318 123.489 126.414 123.586 126.51 123.682L127.956 125.128C128.053 125.225 128.15 125.321 128.247 125.418L128.538 125.709C128.635 125.806 128.732 125.904 128.829 126.001L129.414 126.586L126.586 129.414L126.001 128.829C125.904 128.732 125.806 128.635 125.709 128.538L125.418 128.247C125.321 128.15 125.225 128.053 125.128 127.956L123.682 126.51C123.586 126.414 123.489 126.318 123.394 126.223L123.106 125.936C123.011 125.84 122.916 125.744 122.82 125.648C122.725 125.553 122.629 125.458 122.533 125.362C122.438 125.267 122.343 125.171 122.248 125.076L119.979 122.807C119.885 122.713 119.79 122.619 119.696 122.525L119.415 122.244C119.321 122.151 119.228 122.056 119.135 121.963L118.854 121.683C118.761 121.589 118.667 121.496 118.574 121.403L118.295 121.124C118.202 121.031 118.109 120.938 118.017 120.845L116.905 119.733C116.813 119.641 116.72 119.549 116.628 119.457C116.536 119.365 116.444 119.273 116.353 119.181L115.801 118.629C115.709 118.537 115.617 118.446 115.525 118.354L115.251 118.08C115.16 117.989 115.069 117.897 114.978 117.806C114.886 117.714 114.794 117.623 114.703 117.532L114.43 117.259C114.339 117.168 114.248 117.076 114.157 116.985L113.885 116.713C113.794 116.622 113.703 116.532 113.612 116.441L113.069 115.898C112.979 115.808 112.889 115.717 112.799 115.627C112.709 115.537 112.618 115.447 112.528 115.357C112.438 115.267 112.349 115.177 112.259 115.087L111.183 114.011C111.093 113.921 111.003 113.832 110.914 113.743L110.646 113.476C110.557 113.386 110.469 113.297 110.38 113.208C110.291 113.119 110.201 113.03 110.112 112.941C110.024 112.853 109.935 112.763 109.847 112.675L109.314 112.143C109.226 112.054 109.137 111.966 109.049 111.878C108.96 111.79 108.872 111.701 108.784 111.612L107.729 110.557C107.641 110.469 107.552 110.382 107.465 110.294L107.202 110.031C107.115 109.944 107.028 109.856 106.94 109.769C106.853 109.681 106.765 109.594 106.678 109.507C106.591 109.42 106.504 109.332 106.417 109.245L102.791 105.619C102.706 105.534 102.62 105.449 102.534 105.363C102.449 105.278 102.364 105.192 102.278 105.106L101.768 104.596C101.682 104.511 101.597 104.426 101.512 104.341L101.257 104.086C101.172 104.001 101.088 103.916 101.003 103.831L98.4756 101.304C98.3918 101.22 98.3073 101.136 98.2236 101.053C98.1401 100.969 98.0571 100.885 97.9736 100.802L97.2227 100.051C97.1394 99.9676 97.0558 99.8849 96.9727 99.8018C96.8895 99.7186 96.8067 99.6348 96.7236 99.5518L96.4746 99.3027C96.3917 99.2198 96.3084 99.1375 96.2256 99.0547C96.1427 98.9718 96.0603 98.8884 95.9775 98.8057L94.2461 97.0742C94.164 96.9921 94.0811 96.9102 93.999 96.8281L93.7529 96.582C93.671 96.5001 93.5896 96.4178 93.5078 96.3359C93.426 96.2541 93.3435 96.1726 93.2617 96.0908C93.1799 96.009 93.0983 95.9264 93.0166 95.8447C92.935 95.7631 92.853 95.6821 92.7715 95.6006C92.6899 95.519 92.6088 95.4369 92.5273 95.3555L89.8506 92.6787C89.77 92.5981 89.6889 92.518 89.6084 92.4375C89.5278 92.3569 89.4477 92.2758 89.3672 92.1953L88.6436 91.4717C88.5633 91.3914 88.4825 91.3116 88.4023 91.2314C88.3222 91.1513 88.2422 91.0703 88.1621 90.9902L87.6816 90.5098C87.6017 90.4299 87.5212 90.3503 87.4414 90.2705C87.3615 90.1906 87.282 90.1101 87.2021 90.0303L86.4844 89.3125C86.4048 89.2329 86.3247 89.1538 86.2451 89.0742C86.1655 88.9946 86.0863 88.9145 86.0068 88.835L85.292 88.1201C85.2127 88.0409 85.1329 87.962 85.0537 87.8828C84.9745 87.8036 84.8956 87.7237 84.8164 87.6445L84.1045 86.9326C84.0255 86.8536 83.9461 86.7752 83.8672 86.6963C83.7882 86.6173 83.7098 86.5379 83.6309 86.459L82.6855 85.5137C82.6069 85.435 82.5278 85.3569 82.4492 85.2783C82.3706 85.1997 82.2924 85.1205 82.2139 85.042L79.8652 82.6934C79.7873 82.6154 79.7087 82.5378 79.6309 82.46C79.5529 82.382 79.4753 82.3035 79.3975 82.2256L78.9307 81.7588C78.8528 81.681 78.7741 81.6032 78.6963 81.5254C78.6186 81.4477 78.5415 81.3696 78.4639 81.292L78.2305 81.0586C78.1528 80.9809 78.0747 80.9038 77.9971 80.8262C77.9195 80.7486 77.8422 80.6703 77.7646 80.5928C77.687 80.5152 77.6088 80.4379 77.5312 80.3604C77.4537 80.2828 77.3763 80.2045 77.2988 80.127L76.834 79.6621C76.7567 79.5848 76.6789 79.508 76.6016 79.4307C76.5243 79.3534 76.4474 79.2755 76.3701 79.1982L76.1377 78.9658C76.0604 78.8885 75.9825 78.8116 75.9053 78.7344C75.828 78.6571 75.751 78.5792 75.6738 78.502L74.5166 77.3447C74.4396 77.2677 74.3621 77.1912 74.2852 77.1143C74.2082 77.0373 74.1316 76.9598 74.0547 76.8828L73.5928 76.4209C73.5158 76.344 73.4382 76.2673 73.3613 76.1904L73.1309 75.96C73.054 75.8831 72.9772 75.8054 72.9004 75.7285L72.4395 75.2676C72.3628 75.1909 72.2856 75.1147 72.209 75.0381C72.1323 74.9614 72.0561 74.8842 71.9795 74.8076L71.749 74.5771C71.6724 74.5005 71.5952 74.4243 71.5186 74.3477C71.4419 74.271 71.3657 74.1938 71.2891 74.1172C71.2124 74.0406 71.1352 73.9643 71.0586 73.8877C70.982 73.8111 70.9057 73.7338 70.8291 73.6572L70.5996 73.4277C70.523 73.3512 70.4457 73.2748 70.3691 73.1982C70.2926 73.1217 70.2162 73.0443 70.1396 72.9678L69.2217 72.0498C69.1453 71.9735 69.0685 71.8976 68.9922 71.8213L68.7627 71.5918C68.6864 71.5155 68.6105 71.4386 68.5342 71.3623L68.3047 71.1328C68.2284 71.0565 68.1515 70.9806 68.0752 70.9043C67.9989 70.828 67.923 70.7511 67.8467 70.6748C67.7703 70.5985 67.6935 70.5226 67.6172 70.4463C67.5409 70.37 67.465 70.2931 67.3887 70.2168C67.3124 70.1405 67.2355 70.0646 67.1592 69.9883C67.0829 69.912 67.007 69.8351 66.9307 69.7588C66.8544 69.6825 66.7775 69.6066 66.7012 69.5303C66.6249 69.454 66.5489 69.377 66.4727 69.3008L66.0156 68.8438C65.9394 68.7675 65.8624 68.6915 65.7861 68.6152C65.7099 68.539 65.6339 68.462 65.5576 68.3857L64.8721 67.7002C64.7959 67.624 64.7188 67.5479 64.6426 67.4717L64.1855 67.0146C64.1093 66.9384 64.0332 66.8614 63.957 66.7852L61.2148 64.043C61.1386 63.9668 61.0616 63.8907 60.9854 63.8145L60.5283 63.3574C60.4521 63.2812 60.376 63.2041 60.2998 63.1279L59.6143 62.4424C59.538 62.3661 59.461 62.2901 59.3848 62.2139C59.3085 62.1376 59.2325 62.0606 59.1562 61.9844L58.6992 61.5273C58.623 61.4511 58.546 61.3751 58.4697 61.2988C58.3934 61.2225 58.3175 61.1456 58.2412 61.0693C58.1649 60.993 58.088 60.9171 58.0117 60.8408C57.9354 60.7645 57.8595 60.6876 57.7832 60.6113C57.7069 60.535 57.63 60.4591 57.5537 60.3828C57.4774 60.3065 57.4015 60.2297 57.3252 60.1533C57.2489 60.077 57.172 60.0011 57.0957 59.9248C57.0194 59.8485 56.9435 59.7716 56.8672 59.6953L56.6377 59.4658C56.5614 59.3895 56.4845 59.3136 56.4082 59.2373L56.1787 59.0078C56.1024 58.9315 56.0265 58.8547 55.9502 58.7783L55.0322 57.8604C54.9557 57.7838 54.8783 57.7074 54.8018 57.6309C54.7252 57.5543 54.6488 57.477 54.5723 57.4004L54.3428 57.1709C54.2662 57.0943 54.1889 57.018 54.1123 56.9414C54.0357 56.8648 53.9594 56.7876 53.8828 56.7109C53.8062 56.6343 53.729 56.5581 53.6523 56.4814C53.5757 56.4048 53.4995 56.3276 53.4229 56.251L53.1924 56.0205C53.1158 55.9439 53.0386 55.8677 52.9619 55.791C52.8853 55.7144 52.8091 55.6372 52.7324 55.5605L52.2715 55.0996C52.1946 55.0228 52.1169 54.946 52.04 54.8691L51.8096 54.6387C51.7327 54.5618 51.656 54.4842 51.5791 54.4072L51.1172 53.9453C51.0402 53.8684 50.9627 53.7918 50.8857 53.7148C50.8088 53.6379 50.7323 53.5604 50.6553 53.4834L49.498 52.3262C49.4208 52.249 49.3429 52.172 49.2656 52.0947C49.1884 52.0175 49.1115 51.9396 49.0342 51.8623L48.8018 51.6299C48.7245 51.5526 48.6466 51.4757 48.5693 51.3984C48.492 51.3211 48.4152 51.2433 48.3379 51.166L47.873 50.7012C47.7955 50.6237 47.7172 50.5463 47.6396 50.4688C47.5621 50.3912 47.4848 50.313 47.4072 50.2354C47.3297 50.1578 47.2514 50.0805 47.1738 50.0029C47.0962 49.9253 47.0191 49.8472 46.9414 49.7695L46.708 49.5361C46.6304 49.4585 46.5523 49.3814 46.4746 49.3037C46.3968 49.2259 46.319 49.1472 46.2412 49.0693L45.7744 48.6025C45.6965 48.5247 45.618 48.4471 45.54 48.3691C45.4622 48.2913 45.3846 48.2127 45.3066 48.1348L42.958 45.7861C42.8795 45.7076 42.8003 45.6294 42.7217 45.5508C42.6431 45.4722 42.565 45.3931 42.4863 45.3145L41.541 44.3691C41.4621 44.2902 41.3827 44.2118 41.3037 44.1328C41.2248 44.0539 41.1464 43.9745 41.0674 43.8955L40.3555 43.1836C40.2763 43.1044 40.1964 43.0255 40.1172 42.9463C40.038 42.8671 39.9591 42.7873 39.8799 42.708L39.165 41.9932C39.0855 41.9137 39.0054 41.8345 38.9258 41.7549C38.8462 41.6753 38.7671 41.5952 38.6875 41.5156L37.9697 40.7979C37.8899 40.718 37.8094 40.6385 37.7295 40.5586C37.6497 40.4788 37.5701 40.3983 37.4902 40.3184L37.0098 39.8379C36.9297 39.7578 36.8487 39.6778 36.7686 39.5977C36.6884 39.5175 36.6086 39.4367 36.5283 39.3564L35.8047 38.6328C35.7242 38.5523 35.6431 38.4722 35.5625 38.3916C35.482 38.3111 35.4019 38.23 35.3213 38.1494L32.6445 35.4727C32.5631 35.3912 32.481 35.3101 32.3994 35.2285C32.3179 35.147 32.2369 35.065 32.1553 34.9834C32.0736 34.9017 31.991 34.8201 31.9092 34.7383C31.8274 34.6565 31.7459 34.574 31.6641 34.4922C31.5822 34.4104 31.4999 34.329 31.418 34.2471L31.1719 34.001C31.0898 33.9189 31.0079 33.836 30.9258 33.7539L29.1943 32.0225C29.1116 31.9397 29.0282 31.8573 28.9453 31.7744C28.8625 31.6916 28.7802 31.6083 28.6973 31.5254L28.4482 31.2764C28.3652 31.1933 28.2814 31.1105 28.1982 31.0273C28.1151 30.9442 28.0324 30.8606 27.9492 30.7773L27.1982 30.0264C27.1148 29.9429 27.0308 29.8599 26.9473 29.7764C26.8636 29.6927 26.78 29.6082 26.6963 29.5244L24.1689 26.9971C24.0842 26.9123 23.9989 26.828 23.9141 26.7432L23.6592 26.4883C23.5742 26.4033 23.4894 26.3175 23.4043 26.2324L22.8936 25.7217C22.8082 25.6364 22.7221 25.5512 22.6367 25.4658C22.5513 25.3804 22.4664 25.2945 22.3809 25.209L18.7549 21.583C18.6679 21.496 18.5803 21.4094 18.4932 21.3223C18.4059 21.235 18.3188 21.147 18.2314 21.0596C18.1441 20.9722 18.0562 20.8853 17.9688 20.7979L17.7061 20.5352C17.6184 20.4475 17.5311 20.3592 17.4434 20.2715L16.3877 19.2158C16.2995 19.1276 16.2104 19.0395 16.1221 18.9512C16.0338 18.8629 15.9459 18.774 15.8574 18.6855L15.3252 18.1533C15.2366 18.0647 15.1474 17.9765 15.0586 17.8877C14.9697 17.7988 14.881 17.7091 14.792 17.6201C14.703 17.5312 14.6135 17.4426 14.5244 17.3535L14.2568 17.0859C14.1676 16.9967 14.0787 16.9068 13.9893 16.8174L12.9131 15.7412C12.8232 15.6513 12.7326 15.5617 12.6426 15.4717C12.5526 15.3817 12.4631 15.2912 12.373 15.2012C12.2829 15.111 12.1919 15.021 12.1016 14.9307L11.5586 14.3877C11.468 14.2971 11.3778 14.206 11.2871 14.1152L11.0146 13.8428C10.9238 13.7519 10.8322 13.6613 10.7412 13.5703L10.4678 13.2969C10.3766 13.2057 10.2856 13.1137 10.1943 13.0225C10.1031 12.9312 10.0113 12.8404 9.91992 12.749L9.64551 12.4746C9.55397 12.3831 9.46277 12.2909 9.37109 12.1992L8.81934 11.6475C8.72745 11.5556 8.635 11.4641 8.54297 11.3721C8.4508 11.2799 8.35891 11.187 8.2666 11.0947L7.15527 9.9834C7.06241 9.89054 6.96899 9.79809 6.87598 9.70508L6.59668 9.42578C6.50352 9.33262 6.41069 9.23882 6.31738 9.14551L6.03711 8.86523C5.94363 8.77175 5.84949 8.67859 5.75586 8.58496L5.47461 8.30371C5.38082 8.20992 5.2873 8.11542 5.19336 8.02148L2.92383 5.75195C2.82869 5.65682 2.73299 5.56209 2.6377 5.4668C2.54235 5.37145 2.44707 5.2752 2.35156 5.17969C2.25613 5.08426 2.16004 4.98914 2.06445 4.89355L1.77734 4.60645C1.68157 4.51067 1.58617 4.41429 1.49023 4.31836L0.0439453 2.87207C-0.0527843 2.77534 -0.150176 2.67893 -0.24707 2.58203L-0.538086 2.29102C-0.635158 2.19394 -0.731863 2.09626 -0.829102 1.99902L-1.41406 1.41406L1.41406 -1.41406L1.99902 -0.829102ZM16.499 -47.3291C16.5963 -47.2319 16.6939 -47.1352 16.791 -47.0381L17.082 -46.7471C17.1789 -46.6502 17.2753 -46.5528 17.3721 -46.4561L18.8184 -45.0098C18.9143 -44.9138 19.0107 -44.8184 19.1064 -44.7227L19.3936 -44.4355C19.4891 -44.34 19.5843 -44.2439 19.6797 -44.1484C19.7752 -44.0529 19.8714 -43.9577 19.9668 -43.8623C20.0621 -43.767 20.1568 -43.6713 20.252 -43.5762L22.5215 -41.3066C22.6154 -41.2127 22.7099 -41.1192 22.8037 -41.0254L23.085 -40.7441C23.1786 -40.6505 23.2718 -40.5564 23.3652 -40.4629L23.6455 -40.1826C23.7388 -40.0893 23.8326 -39.9965 23.9258 -39.9033L24.2051 -39.624C24.2981 -39.531 24.3905 -39.4376 24.4834 -39.3447L25.5947 -38.2334C25.687 -38.1411 25.7799 -38.0492 25.8721 -37.957C25.9641 -37.865 26.0556 -37.7726 26.1475 -37.6807L26.6992 -37.1289C26.7909 -37.0372 26.8831 -36.946 26.9746 -36.8545L27.249 -36.5801C27.3404 -36.4887 27.4312 -36.3969 27.5225 -36.3057C27.6137 -36.2144 27.7057 -36.1234 27.7969 -36.0322L28.0703 -35.7588C28.1613 -35.6678 28.2519 -35.5762 28.3428 -35.4854L28.6152 -35.2129C28.706 -35.1222 28.7971 -35.032 28.8877 -34.9414L29.4307 -34.3984C29.521 -34.3081 29.611 -34.2171 29.7012 -34.127C29.7912 -34.0369 29.8817 -33.9474 29.9717 -33.8574C30.0617 -33.7674 30.1513 -33.6768 30.2412 -33.5869L31.3174 -32.5107C31.4068 -32.4213 31.4967 -32.3324 31.5859 -32.2432L31.8535 -31.9756C31.9426 -31.8865 32.0312 -31.797 32.1201 -31.708C32.2091 -31.619 32.2988 -31.5303 32.3877 -31.4414C32.4765 -31.3526 32.5647 -31.2634 32.6533 -31.1748L33.1855 -30.6426C33.274 -30.5541 33.3629 -30.4662 33.4512 -30.3779C33.5395 -30.2896 33.6276 -30.2005 33.7158 -30.1123L34.7715 -29.0566C34.8592 -28.9689 34.9475 -28.8816 35.0352 -28.7939L35.2979 -28.5312C35.3853 -28.4438 35.4722 -28.3559 35.5596 -28.2686C35.647 -28.1812 35.735 -28.0941 35.8223 -28.0068C35.9094 -27.9197 35.996 -27.8321 36.083 -27.7451L39.709 -24.1191C39.7945 -24.0336 39.8804 -23.9487 39.9658 -23.8633C40.0512 -23.7779 40.1364 -23.6918 40.2217 -23.6064L40.7324 -23.0957C40.8175 -23.0106 40.9033 -22.9258 40.9883 -22.8408L41.2432 -22.5859C41.328 -22.5011 41.4123 -22.4158 41.4971 -22.3311L44.0244 -19.8037C44.1082 -19.72 44.1927 -19.6364 44.2764 -19.5527C44.3599 -19.4692 44.4429 -19.3852 44.5264 -19.3018L45.2773 -18.5508C45.3606 -18.4676 45.4442 -18.3849 45.5273 -18.3018C45.6105 -18.2186 45.6933 -18.1348 45.7764 -18.0518L46.0254 -17.8027C46.1083 -17.7198 46.1916 -17.6375 46.2744 -17.5547C46.3573 -17.4718 46.4397 -17.3884 46.5225 -17.3057L48.2539 -15.5742C48.336 -15.4921 48.4189 -15.4102 48.501 -15.3281L48.7471 -15.082C48.829 -15.0001 48.9104 -14.9178 48.9922 -14.8359C49.074 -14.7541 49.1565 -14.6726 49.2383 -14.5908C49.3201 -14.509 49.4017 -14.4264 49.4834 -14.3447C49.565 -14.2631 49.647 -14.1821 49.7285 -14.1006C49.8101 -14.019 49.8912 -13.9369 49.9727 -13.8555L52.6494 -11.1787C52.73 -11.0981 52.8111 -11.018 52.8916 -10.9375C52.9722 -10.8569 53.0523 -10.7758 53.1328 -10.6953L53.8564 -9.97168C53.9367 -9.89143 54.0175 -9.81162 54.0977 -9.73145C54.1778 -9.65126 54.2578 -9.57035 54.3379 -9.49023L54.8184 -9.00977C54.8983 -8.92987 54.9788 -8.85034 55.0586 -8.77051C55.1385 -8.69063 55.218 -8.61008 55.2979 -8.53027L56.0156 -7.8125C56.0952 -7.7329 56.1753 -7.65376 56.2549 -7.57422C56.3345 -7.49465 56.4137 -7.41446 56.4932 -7.33496L57.208 -6.62012C57.2873 -6.54085 57.3671 -6.46202 57.4463 -6.38281C57.5255 -6.30358 57.6044 -6.2237 57.6836 -6.14453L58.3955 -5.43262C58.4745 -5.35365 58.5539 -5.2752 58.6328 -5.19629C58.7118 -5.11733 58.7902 -5.03788 58.8691 -4.95898L59.8145 -4.01367C59.8931 -3.93503 59.9722 -3.85691 60.0508 -3.77832C60.1294 -3.69972 60.2076 -3.62054 60.2861 -3.54199L62.6348 -1.19336C62.7127 -1.11542 62.7913 -1.03785 62.8691 -0.959961C62.9471 -0.882034 63.0247 -0.803464 63.1025 -0.725586L63.5693 -0.258789C63.6472 -0.180955 63.7259 -0.103179 63.8037 -0.0253906C63.8814 0.0522688 63.9585 0.130394 64.0361 0.208008L64.2695 0.441406C64.3472 0.519064 64.4253 0.596214 64.5029 0.673828C64.5805 0.751447 64.6578 0.829651 64.7354 0.907227C64.813 0.984837 64.8912 1.06208 64.9688 1.13965C65.0463 1.2172 65.1237 1.29554 65.2012 1.37305L65.666 1.83789C65.7433 1.91522 65.8211 1.99204 65.8984 2.06934C65.9757 2.14664 66.0526 2.22449 66.1299 2.30176L66.3623 2.53418C66.4396 2.61147 66.5175 2.68837 66.5947 2.76562C66.672 2.84287 66.749 2.92084 66.8262 2.99805L67.9834 4.15527C68.0604 4.23228 68.1379 4.30877 68.2148 4.38574C68.2918 4.46272 68.3684 4.54024 68.4453 4.61719L68.9072 5.0791C68.9842 5.15604 69.0618 5.23266 69.1387 5.30957L69.3691 5.54004C69.446 5.61692 69.5228 5.69464 69.5996 5.77148L70.0605 6.23242C70.1372 6.3091 70.2144 6.38527 70.291 6.46191C70.3677 6.53857 70.4439 6.61575 70.5205 6.69238L70.751 6.92285C70.8276 6.99952 70.9048 7.0757 70.9814 7.15234C71.0581 7.22898 71.1343 7.3062 71.2109 7.38281C71.2876 7.45944 71.3648 7.5357 71.4414 7.6123C71.518 7.68894 71.5943 7.76616 71.6709 7.84277L71.9004 8.07227C71.977 8.14885 72.0543 8.2252 72.1309 8.30176C72.2074 8.37832 72.2838 8.45569 72.3604 8.53223L73.2783 9.4502C73.3547 9.52654 73.4315 9.60239 73.5078 9.67871L73.7373 9.9082C73.8136 9.98455 73.8895 10.0614 73.9658 10.1377L74.1953 10.3672C74.2716 10.4435 74.3485 10.5194 74.4248 10.5957C74.5011 10.672 74.577 10.7489 74.6533 10.8252C74.7297 10.9015 74.8065 10.9774 74.8828 11.0537C74.9591 11.13 75.035 11.2069 75.1113 11.2832C75.1876 11.3595 75.2645 11.4354 75.3408 11.5117C75.4171 11.588 75.493 11.6649 75.5693 11.7412C75.6456 11.8175 75.7225 11.8934 75.7988 11.9697C75.8751 12.046 75.9511 12.123 76.0273 12.1992L76.4844 12.6562C76.5606 12.7325 76.6376 12.8085 76.7139 12.8848C76.7901 12.961 76.8661 13.038 76.9424 13.1143L77.6279 13.7998C77.7041 13.876 77.7812 13.9521 77.8574 14.0283L78.3145 14.4854C78.3907 14.5616 78.4668 14.6386 78.543 14.7148L81.2852 17.457C81.3614 17.5332 81.4384 17.6093 81.5146 17.6855L81.9717 18.1426C82.0479 18.2188 82.124 18.2959 82.2002 18.3721L82.8857 19.0576C82.962 19.1339 83.039 19.2099 83.1152 19.2861C83.1915 19.3624 83.2675 19.4394 83.3438 19.5156L83.8008 19.9727C83.877 20.0489 83.954 20.1249 84.0303 20.2012C84.1066 20.2775 84.1825 20.3544 84.2588 20.4307C84.3351 20.507 84.412 20.5829 84.4883 20.6592C84.5646 20.7355 84.6405 20.8124 84.7168 20.8887C84.7931 20.965 84.87 21.0409 84.9463 21.1172C85.0226 21.1935 85.0985 21.2703 85.1748 21.3467C85.2511 21.423 85.328 21.4989 85.4043 21.5752C85.4806 21.6515 85.5565 21.7284 85.6328 21.8047L85.8623 22.0342C85.9386 22.1105 86.0155 22.1864 86.0918 22.2627L86.3213 22.4922C86.3976 22.5685 86.4735 22.6453 86.5498 22.7217L87.4678 23.6396C87.5443 23.7162 87.6217 23.7926 87.6982 23.8691C87.7748 23.9457 87.8512 24.023 87.9277 24.0996L88.1572 24.3291C88.2338 24.4057 88.3111 24.482 88.3877 24.5586C88.4643 24.6352 88.5406 24.7124 88.6172 24.7891C88.6938 24.8657 88.771 24.9419 88.8477 25.0186C88.9243 25.0952 89.0005 25.1724 89.0771 25.249L89.3076 25.4795C89.3842 25.5561 89.4614 25.6323 89.5381 25.709C89.6147 25.7856 89.6909 25.8628 89.7676 25.9395L90.2285 26.4004C90.3054 26.4772 90.3831 26.554 90.46 26.6309L90.6904 26.8613C90.7673 26.9382 90.844 27.0158 90.9209 27.0928L91.3828 27.5547C91.4598 27.6316 91.5373 27.7082 91.6143 27.7852C91.6912 27.8621 91.7677 27.9396 91.8447 28.0166L93.002 29.1738C93.0792 29.251 93.1571 29.328 93.2344 29.4053C93.3116 29.4825 93.3885 29.5604 93.4658 29.6377L93.6982 29.8701C93.7755 29.9474 93.8534 30.0243 93.9307 30.1016C94.008 30.1789 94.0848 30.2567 94.1621 30.334L94.627 30.7988C94.7045 30.8763 94.7828 30.9537 94.8604 31.0312C94.9379 31.1088 95.0152 31.187 95.0928 31.2646C95.1703 31.3422 95.2486 31.4195 95.3262 31.4971C95.4038 31.5747 95.4809 31.6528 95.5586 31.7305L95.792 31.9639C95.8696 32.0415 95.9477 32.1186 96.0254 32.1963C96.1032 32.2741 96.181 32.3528 96.2588 32.4307L96.7256 32.8975C96.8035 32.9753 96.882 33.0529 96.96 33.1309C97.0378 33.2087 97.1154 33.2873 97.1934 33.3652L99.542 35.7139C99.6205 35.7924 99.6997 35.8706 99.7783 35.9492C99.8569 36.0278 99.935 36.1069 100.014 36.1855L100.959 37.1309C101.038 37.2098 101.117 37.2882 101.196 37.3672C101.275 37.4461 101.354 37.5255 101.433 37.6045L102.145 38.3164C102.224 38.3956 102.304 38.4745 102.383 38.5537C102.462 38.6329 102.541 38.7127 102.62 38.792L103.335 39.5068C103.414 39.5863 103.495 39.6655 103.574 39.7451C103.654 39.8247 103.733 39.9048 103.812 39.9844L104.53 40.7021C104.61 40.782 104.691 40.8615 104.771 40.9414C104.85 41.0212 104.93 41.1017 105.01 41.1816L105.49 41.6621C105.57 41.7422 105.651 41.8222 105.731 41.9023C105.812 41.9825 105.891 42.0633 105.972 42.1436L106.695 42.8672C106.776 42.9477 106.857 43.0278 106.938 43.1084C107.018 43.1889 107.098 43.27 107.179 43.3506L109.855 46.0273C109.937 46.1088 110.019 46.1899 110.101 46.2715C110.182 46.353 110.263 46.435 110.345 46.5166C110.426 46.5983 110.509 46.6799 110.591 46.7617C110.673 46.8435 110.754 46.926 110.836 47.0078C110.918 47.0896 111 47.171 111.082 47.2529L111.328 47.499C111.41 47.5811 111.492 47.664 111.574 47.7461L113.306 49.4775C113.388 49.5603 113.472 49.6427 113.555 49.7256C113.637 49.8084 113.72 49.8917 113.803 49.9746L114.052 50.2236C114.135 50.3067 114.219 50.3895 114.302 50.4727C114.385 50.5558 114.468 50.6394 114.551 50.7227L115.302 51.4736C115.385 51.5571 115.469 51.6401 115.553 51.7236C115.636 51.8073 115.72 51.8918 115.804 51.9756L118.331 54.5029C118.416 54.5877 118.501 54.672 118.586 54.7568L118.841 55.0117C118.926 55.0967 119.011 55.1825 119.096 55.2676L119.606 55.7783C119.692 55.8636 119.778 55.9488 119.863 56.0342C119.949 56.1196 120.034 56.2055 120.119 56.291L123.745 59.917C123.832 60.004 123.92 60.0906 124.007 60.1777C124.094 60.265 124.181 60.353 124.269 60.4404C124.356 60.5278 124.444 60.6147 124.531 60.7021L124.794 60.9648C124.882 61.0525 124.969 61.1408 125.057 61.2285L126.112 62.2842C126.201 62.3724 126.29 62.4605 126.378 62.5488C126.466 62.6371 126.554 62.726 126.643 62.8145L127.175 63.3467C127.263 63.4353 127.353 63.5235 127.441 63.6123C127.53 63.7012 127.619 63.7909 127.708 63.8799C127.797 63.9688 127.886 64.0574 127.976 64.1465L128.243 64.4141C128.332 64.5033 128.421 64.5932 128.511 64.6826L129.587 65.7588C129.677 65.8487 129.767 65.9383 129.857 66.0283C129.947 66.1183 130.037 66.2088 130.127 66.2988C130.217 66.389 130.308 66.479 130.398 66.5693L130.941 67.1123C131.032 67.2029 131.122 67.294 131.213 67.3848L131.485 67.6572C131.576 67.7481 131.668 67.8387 131.759 67.9297L132.032 68.2031C132.123 68.2943 132.214 68.3863 132.306 68.4775C132.397 68.5688 132.489 68.6596 132.58 68.751L132.854 69.0254C132.946 69.1169 133.037 69.2091 133.129 69.3008L133.681 69.8525C133.773 69.9444 133.865 70.0359 133.957 70.1279C134.049 70.2201 134.141 70.313 134.233 70.4053L135.345 71.5166C135.438 71.6095 135.531 71.7019 135.624 71.7949L135.903 72.0742C135.996 72.1674 136.089 72.2612 136.183 72.3545L136.463 72.6348C136.556 72.7282 136.651 72.8214 136.744 72.915L137.025 73.1963C137.119 73.2901 137.213 73.3846 137.307 73.4785L139.576 75.748C139.671 75.8432 139.767 75.9379 139.862 76.0332C139.958 76.1286 140.053 76.2248 140.148 76.3203C140.244 76.4157 140.34 76.5109 140.436 76.6064L140.723 76.8936C140.818 76.9893 140.914 77.0857 141.01 77.1816L142.456 78.6279C142.553 78.7247 142.65 78.8211 142.747 78.918L143.038 79.209C143.135 79.3061 143.232 79.4037 143.329 79.501L143.914 80.0859L141.086 82.9141L140.501 82.3291C140.404 82.2319 140.306 82.1352 140.209 82.0381L139.918 81.7471C139.821 81.6502 139.725 81.5528 139.628 81.4561L138.182 80.0098C138.086 79.9138 137.989 79.8184 137.894 79.7227L137.606 79.4355C137.511 79.34 137.416 79.2439 137.32 79.1484C137.225 79.0529 137.129 78.9577 137.033 78.8623C136.938 78.767 136.843 78.6713 136.748 78.5762L134.479 76.3066C134.385 76.2127 134.29 76.1192 134.196 76.0254L133.915 75.7441C133.821 75.6505 133.728 75.5564 133.635 75.4629L133.354 75.1826C133.261 75.0893 133.167 74.9965 133.074 74.9033L132.795 74.624C132.702 74.531 132.609 74.4376 132.517 74.3447L131.405 73.2334C131.313 73.1411 131.22 73.0492 131.128 72.957C131.036 72.865 130.944 72.7726 130.853 72.6807L130.301 72.1289C130.209 72.0372 130.117 71.946 130.025 71.8545L129.751 71.5801C129.66 71.4887 129.569 71.3969 129.478 71.3057C129.386 71.2144 129.294 71.1234 129.203 71.0322L128.93 70.7588C128.839 70.6678 128.748 70.5762 128.657 70.4854L128.385 70.2129C128.294 70.1222 128.203 70.032 128.112 69.9414L127.569 69.3984C127.479 69.3081 127.389 69.2171 127.299 69.127C127.209 69.0369 127.118 68.9474 127.028 68.8574C126.938 68.7674 126.849 68.6768 126.759 68.5869L125.683 67.5107C125.593 67.4213 125.503 67.3324 125.414 67.2432L125.146 66.9756C125.057 66.8865 124.969 66.797 124.88 66.708C124.791 66.619 124.701 66.5303 124.612 66.4414C124.524 66.3526 124.435 66.2634 124.347 66.1748L123.814 65.6426C123.726 65.5541 123.637 65.4662 123.549 65.3779C123.46 65.2896 123.372 65.2005 123.284 65.1123L122.229 64.0566C122.141 63.9689 122.052 63.8816 121.965 63.7939L121.702 63.5312C121.615 63.4438 121.528 63.3559 121.44 63.2686C121.353 63.1812 121.265 63.0941 121.178 63.0068C121.091 62.9197 121.004 62.8321 120.917 62.7451L117.291 59.1191C117.206 59.0336 117.12 58.9487 117.034 58.8633C116.949 58.7779 116.864 58.6918 116.778 58.6064L116.268 58.0957C116.182 58.0106 116.097 57.9258 116.012 57.8408L115.757 57.5859C115.672 57.5011 115.588 57.4158 115.503 57.3311L112.976 54.8037C112.892 54.72 112.807 54.6364 112.724 54.5527C112.64 54.4692 112.557 54.3852 112.474 54.3018L111.723 53.5508C111.639 53.4676 111.556 53.3849 111.473 53.3018C111.39 53.2186 111.307 53.1348 111.224 53.0518L110.975 52.8027C110.892 52.7198 110.808 52.6375 110.726 52.5547C110.643 52.4718 110.56 52.3884 110.478 52.3057L108.746 50.5742C108.664 50.4921 108.581 50.4102 108.499 50.3281L108.253 50.082C108.171 50.0001 108.09 49.9178 108.008 49.8359C107.926 49.7541 107.843 49.6726 107.762 49.5908C107.68 49.509 107.598 49.4264 107.517 49.3447C107.435 49.2631 107.353 49.1821 107.271 49.1006C107.19 49.019 107.109 48.9369 107.027 48.8555L104.351 46.1787C104.27 46.0981 104.189 46.018 104.108 45.9375C104.028 45.8569 103.948 45.7758 103.867 45.6953L103.144 44.9717C103.063 44.8914 102.983 44.8116 102.902 44.7314C102.822 44.6513 102.742 44.5703 102.662 44.4902L102.182 44.0098C102.102 43.9299 102.021 43.8503 101.941 43.7705C101.862 43.6906 101.782 43.6101 101.702 43.5303L100.984 42.8125C100.905 42.7329 100.825 42.6538 100.745 42.5742C100.666 42.4946 100.586 42.4145 100.507 42.335L99.792 41.6201C99.7127 41.5409 99.6329 41.462 99.5537 41.3828C99.4745 41.3036 99.3956 41.2237 99.3164 41.1445L98.6045 40.4326C98.5255 40.3536 98.4461 40.2752 98.3672 40.1963C98.2882 40.1173 98.2098 40.0379 98.1309 39.959L97.1855 39.0137C97.1069 38.935 97.0278 38.8569 96.9492 38.7783C96.8706 38.6997 96.7924 38.6205 96.7139 38.542L94.3652 36.1934C94.2873 36.1154 94.2087 36.0378 94.1309 35.96C94.0529 35.882 93.9753 35.8035 93.8975 35.7256L93.4307 35.2588C93.3528 35.181 93.2741 35.1032 93.1963 35.0254C93.1186 34.9477 93.0415 34.8696 92.9639 34.792L92.7305 34.5586C92.6528 34.4809 92.5747 34.4038 92.4971 34.3262C92.4195 34.2486 92.3422 34.1703 92.2646 34.0928C92.187 34.0152 92.1088 33.9379 92.0312 33.8604C91.9537 33.7828 91.8763 33.7045 91.7988 33.627L91.334 33.1621C91.2567 33.0848 91.1789 33.008 91.1016 32.9307C91.0243 32.8534 90.9474 32.7755 90.8701 32.6982L90.6377 32.4658C90.5604 32.3885 90.4825 32.3116 90.4053 32.2344C90.328 32.1571 90.251 32.0792 90.1738 32.002L89.0166 30.8447C88.9396 30.7677 88.8621 30.6912 88.7852 30.6143C88.7082 30.5373 88.6316 30.4598 88.5547 30.3828L88.0928 29.9209C88.0158 29.844 87.9382 29.7673 87.8613 29.6904L87.6309 29.46C87.554 29.3831 87.4772 29.3054 87.4004 29.2285L86.9395 28.7676C86.8628 28.6909 86.7856 28.6147 86.709 28.5381C86.6323 28.4614 86.5561 28.3842 86.4795 28.3076L86.249 28.0771C86.1724 28.0005 86.0952 27.9243 86.0186 27.8477C85.9419 27.771 85.8657 27.6938 85.7891 27.6172C85.7124 27.5406 85.6352 27.4643 85.5586 27.3877C85.482 27.3111 85.4057 27.2338 85.3291 27.1572L85.0996 26.9277C85.023 26.8512 84.9457 26.7748 84.8691 26.6982C84.7926 26.6217 84.7162 26.5443 84.6396 26.4678L83.7217 25.5498C83.6453 25.4735 83.5685 25.3976 83.4922 25.3213L83.2627 25.0918C83.1864 25.0155 83.1105 24.9386 83.0342 24.8623L82.8047 24.6328C82.7284 24.5565 82.6515 24.4806 82.5752 24.4043C82.4989 24.328 82.423 24.2511 82.3467 24.1748C82.2703 24.0985 82.1935 24.0226 82.1172 23.9463C82.0409 23.87 81.965 23.7931 81.8887 23.7168C81.8124 23.6405 81.7355 23.5646 81.6592 23.4883C81.5829 23.412 81.507 23.3351 81.4307 23.2588C81.3544 23.1825 81.2775 23.1066 81.2012 23.0303C81.1249 22.954 81.0489 22.877 80.9727 22.8008L80.5156 22.3438C80.4394 22.2675 80.3624 22.1915 80.2861 22.1152C80.2099 22.039 80.1339 21.962 80.0576 21.8857L79.3721 21.2002C79.2959 21.124 79.2188 21.0479 79.1426 20.9717L78.6855 20.5146C78.6093 20.4384 78.5332 20.3614 78.457 20.2852L75.7148 17.543C75.6386 17.4668 75.5616 17.3907 75.4854 17.3145L75.0283 16.8574C74.9521 16.7812 74.876 16.7041 74.7998 16.6279L74.1143 15.9424C74.038 15.8661 73.961 15.7901 73.8848 15.7139C73.8085 15.6376 73.7325 15.5606 73.6562 15.4844L73.1992 15.0273C73.123 14.9511 73.046 14.8751 72.9697 14.7988C72.8934 14.7225 72.8175 14.6456 72.7412 14.5693C72.6649 14.493 72.588 14.4171 72.5117 14.3408C72.4354 14.2645 72.3595 14.1876 72.2832 14.1113C72.2069 14.035 72.13 13.9591 72.0537 13.8828C71.9774 13.8065 71.9015 13.7297 71.8252 13.6533C71.7489 13.577 71.672 13.5011 71.5957 13.4248C71.5194 13.3485 71.4435 13.2716 71.3672 13.1953L71.1377 12.9658C71.0614 12.8895 70.9845 12.8136 70.9082 12.7373L70.6787 12.5078C70.6024 12.4315 70.5265 12.3547 70.4502 12.2783L69.5322 11.3604C69.4557 11.2838 69.3783 11.2074 69.3018 11.1309C69.2252 11.0543 69.1488 10.977 69.0723 10.9004L68.8428 10.6709C68.7662 10.5943 68.6889 10.518 68.6123 10.4414C68.5357 10.3648 68.4594 10.2876 68.3828 10.2109C68.3062 10.1343 68.229 10.0581 68.1523 9.98145C68.0757 9.9048 67.9995 9.82765 67.9229 9.75098L67.6924 9.52051C67.6158 9.44388 67.5386 9.36767 67.4619 9.29102C67.3853 9.21437 67.3091 9.13722 67.2324 9.06055L66.7715 8.59961C66.6946 8.52276 66.6169 8.44602 66.54 8.36914L66.3096 8.13867C66.2327 8.06176 66.156 7.98417 66.0791 7.90723L65.6172 7.44531C65.5402 7.36837 65.4627 7.29182 65.3857 7.21484C65.3088 7.13787 65.2323 7.0604 65.1553 6.9834L63.998 5.82617C63.9208 5.74897 63.8429 5.67197 63.7656 5.59473C63.6884 5.51748 63.6115 5.43959 63.5342 5.3623L63.3018 5.12988C63.2245 5.05262 63.1466 4.97574 63.0693 4.89844C62.992 4.82115 62.9152 4.74335 62.8379 4.66602L62.373 4.20117C62.2955 4.12366 62.2172 4.0463 62.1396 3.96875C62.0621 3.89118 61.9848 3.81296 61.9072 3.73535C61.8297 3.65778 61.7514 3.58055 61.6738 3.50293C61.5962 3.42532 61.5191 3.34719 61.4414 3.26953L61.208 3.03613C61.1304 2.95852 61.0523 2.88137 60.9746 2.80371C60.8968 2.72592 60.819 2.64717 60.7412 2.56934L60.2744 2.10254C60.1965 2.02466 60.118 1.94707 60.04 1.86914C59.9622 1.79125 59.8846 1.7127 59.8066 1.63477L57.458 -0.713867C57.3795 -0.792416 57.3003 -0.870614 57.2217 -0.949219C57.1431 -1.0278 57.065 -1.10691 56.9863 -1.18555L56.041 -2.13086C55.9621 -2.20975 55.8827 -2.28823 55.8037 -2.36719C55.7248 -2.4461 55.6464 -2.52552 55.5674 -2.60449L54.8555 -3.31641C54.7763 -3.39558 54.6964 -3.47448 54.6172 -3.55371C54.538 -3.63291 54.4591 -3.71273 54.3799 -3.79199L53.665 -4.50684C53.5855 -4.58634 53.5054 -4.66555 53.4258 -4.74512C53.3462 -4.82465 53.2671 -4.90477 53.1875 -4.98438L52.4697 -5.70215C52.3899 -5.78196 52.3094 -5.86153 52.2295 -5.94141C52.1497 -6.02124 52.0701 -6.10174 51.9902 -6.18164L51.5098 -6.66211C51.4297 -6.74222 51.3487 -6.82216 51.2686 -6.90234C51.1884 -6.98252 51.1086 -7.06331 51.0283 -7.14355L50.3047 -7.86719C50.2242 -7.94768 50.1431 -8.02783 50.0625 -8.1084C49.982 -8.18891 49.9019 -8.27 49.8213 -8.35059L47.1445 -11.0273C47.0631 -11.1088 46.981 -11.1899 46.8994 -11.2715C46.8179 -11.353 46.7369 -11.435 46.6553 -11.5166C46.5736 -11.5983 46.491 -11.6799 46.4092 -11.7617C46.3274 -11.8435 46.2459 -11.926 46.1641 -12.0078C46.0822 -12.0896 45.9999 -12.171 45.918 -12.2529L45.6719 -12.499C45.5898 -12.5811 45.5079 -12.664 45.4258 -12.7461L43.6943 -14.4775C43.6116 -14.5603 43.5282 -14.6427 43.4453 -14.7256C43.3625 -14.8084 43.2802 -14.8917 43.1973 -14.9746L42.9482 -15.2236C42.8652 -15.3067 42.7814 -15.3895 42.6982 -15.4727C42.6151 -15.5558 42.5324 -15.6394 42.4492 -15.7227L41.6982 -16.4736C41.6148 -16.5571 41.5308 -16.6401 41.4473 -16.7236C41.3636 -16.8073 41.28 -16.8918 41.1963 -16.9756L38.6689 -19.5029C38.5842 -19.5877 38.4989 -19.672 38.4141 -19.7568L38.1592 -20.0117C38.0742 -20.0967 37.9894 -20.1825 37.9043 -20.2676L37.3936 -20.7783C37.3082 -20.8636 37.2221 -20.9488 37.1367 -21.0342C37.0513 -21.1196 36.9664 -21.2055 36.8809 -21.291L33.2549 -24.917C33.1679 -25.004 33.0803 -25.0906 32.9932 -25.1777C32.9059 -25.265 32.8188 -25.353 32.7314 -25.4404C32.6441 -25.5278 32.5562 -25.6147 32.4688 -25.7021L32.2061 -25.9648C32.1184 -26.0525 32.0311 -26.1408 31.9434 -26.2285L30.8877 -27.2842C30.7995 -27.3724 30.7104 -27.4605 30.6221 -27.5488C30.5338 -27.6371 30.4459 -27.726 30.3574 -27.8145L29.8252 -28.3467C29.7366 -28.4353 29.6474 -28.5235 29.5586 -28.6123C29.4697 -28.7012 29.381 -28.7909 29.292 -28.8799C29.203 -28.9688 29.1135 -29.0574 29.0244 -29.1465L28.7568 -29.4141C28.6676 -29.5033 28.5787 -29.5932 28.4893 -29.6826L27.4131 -30.7588C27.3232 -30.8487 27.2326 -30.9383 27.1426 -31.0283C27.0526 -31.1183 26.9631 -31.2088 26.873 -31.2988C26.7829 -31.389 26.6919 -31.479 26.6016 -31.5693L26.0586 -32.1123C25.968 -32.2029 25.8778 -32.294 25.7871 -32.3848L25.5146 -32.6572C25.4238 -32.7481 25.3322 -32.8387 25.2412 -32.9297L24.9678 -33.2031C24.8766 -33.2943 24.7856 -33.3863 24.6943 -33.4775C24.6031 -33.5688 24.5113 -33.6596 24.4199 -33.751L24.1455 -34.0254C24.054 -34.1169 23.9628 -34.2091 23.8711 -34.3008L23.3193 -34.8525C23.2274 -34.9444 23.135 -35.0359 23.043 -35.1279C22.9508 -35.2201 22.8589 -35.313 22.7666 -35.4053L21.6553 -36.5166C21.5624 -36.6095 21.469 -36.7019 21.376 -36.7949L21.0967 -37.0742C21.0035 -37.1674 20.9107 -37.2612 20.8174 -37.3545L20.5371 -37.6348C20.4436 -37.7282 20.3495 -37.8214 20.2559 -37.915L19.9746 -38.1963C19.8808 -38.2901 19.7873 -38.3846 19.6934 -38.4785L17.4238 -40.748C17.3287 -40.8432 17.233 -40.9379 17.1377 -41.0332C17.0423 -41.1286 16.9471 -41.2248 16.8516 -41.3203C16.7561 -41.4157 16.66 -41.5109 16.5645 -41.6064L16.2773 -41.8936C16.1816 -41.9893 16.0862 -42.0857 15.9902 -42.1816L14.5439 -43.6279C14.4472 -43.7247 14.3498 -43.8211 14.2529 -43.918L13.9619 -44.209C13.8648 -44.3061 13.7681 -44.4037 13.6709 -44.501L13.0859 -45.0859L15.9141 -47.9141L16.499 -47.3291Z" fill="black"/>
</g>
<defs>
<clipPath id="clip0_1_2">
<rect width="128" height="128" fill="white"/>
</clipPath>
</defs>
</svg>
